# Rhino

g object_1
v 0.623380184173584 -0.311690092086792 -0.02500000037252903
v 0.623380184173584 -0.311690092086792 0.02500000037252903
v 5.551115123125783e-16 0.311690092086792 -0.02500000037252903
v 5.551115123125783e-16 0.311690092086792 0.02500000037252903
v 5.551115123125783e-16 0.311690092086792 -0.02500000037252903
v 5.551115123125783e-16 0.311690092086792 0.02500000037252903
v -0.623380184173584 -0.311690092086792 -0.02500000037252903
v -0.623380184173584 -0.311690092086792 0.02500000037252903
v -0.623380184173584 -0.311690092086792 -0.02500000037252903
v -0.623380184173584 -0.311690092086792 0.02500000037252903
v 0.623380184173584 -0.311690092086792 -0.02500000037252903
v 0.623380184173584 -0.311690092086792 0.02500000037252903
v 0.623380184173584 -0.311690092086792 -0.02500000037252903
v 5.551115123125783e-16 0.311690092086792 -0.02500000037252903
v -0.623380184173584 -0.311690092086792 -0.02500000037252903
v 0.623380184173584 -0.311690092086792 0.02500000037252903
v 5.551115123125783e-16 0.311690092086792 0.02500000037252903
v -0.623380184173584 -0.311690092086792 0.02500000037252903
vt 0 0
vt 0 0.5137876272201538
vt 0.3333333432674408 0
vt 0.3333333432674408 0.5137876272201538
vt 0.3333333432674408 0
vt 0.3333333432674408 0.5137876272201538
vt 0.6666666865348816 0
vt 0.6666666865348816 0.5137876272201538
vt 0.6666666865348816 0
vt 0.6666666865348816 0.5137876272201538
vt 1 0
vt 1 0.5137876272201538
vt 0.2928932309150696 0.5137881636619568
vt 0 0.5137881636619568
vt 0 1
vt 0.2928932309150696 1
vt 0 1
vt 0 0.5137881636619568
vn 0.7071067690849304 0.7071067690849304 0
vn 0.7071067690849304 0.7071067690849304 0
vn 0.7071067690849304 0.7071067690849304 0
vn 0.7071067690849304 0.7071067690849304 0
vn -0.7071067690849304 0.7071067690849304 0
vn -0.7071067690849304 0.7071067690849304 0
vn -0.7071067690849304 0.7071067690849304 0
vn -0.7071067690849304 0.7071067690849304 0
vn -1.554312234475219e-15 -1 0
vn -1.554312234475219e-15 -1 0
vn -1.554312234475219e-15 -1 0
vn -1.554312234475219e-15 -1 0
vn 0 0 -1
vn 0 0 -1
vn 0 0 -1
vn 0 0 1
vn 0 0 1
vn 0 0 1
f 1/1/1 3/3/3 4/4/4 2/2/2
f 5/5/5 7/7/7 8/8/8 6/6/6
f 9/9/9 11/11/11 12/12/12 10/10/10
f 14/14/14 13/13/13 15/15/15
f 17/17/17 18/18/18 16/16/16
g object_2
v 17.08123779296875 0.3900668025016785 -0.02500000037252903
v 17.08123779296875 0.3900668025016785 0.02500000037252903
v 17.08123779296875 1.01344633102417 -0.02500000037252903
v 17.08123779296875 1.01344633102417 0.02500000037252903
v 17.08123779296875 1.01344633102417 -0.02500000037252903
v 17.08123779296875 1.01344633102417 0.02500000037252903
v 16.76955223083496 0.7017516493797302 -0.02500000037252903
v 16.76955223083496 0.7017516493797302 0.02500000037252903
v 16.76955223083496 0.7017516493797302 -0.02500000037252903
v 16.76955223083496 0.7017516493797302 0.02500000037252903
v 17.08123779296875 0.3900668025016785 -0.02500000037252903
v 17.08123779296875 0.3900668025016785 0.02500000037252903
v 17.08123779296875 0.3900668025016785 -0.02500000037252903
v 17.08123779296875 1.01344633102417 -0.02500000037252903
v 16.76955223083496 0.7017516493797302 -0.02500000037252903
v 17.08123779296875 0.3900668025016785 0.02500000037252903
v 17.08123779296875 1.01344633102417 0.02500000037252903
v 16.76955223083496 0.7017516493797302 0.02500000037252903
vt 0 0
vt 0 0.5371264219284058
vt 0.3333333432674408 0
vt 0.3333333432674408 0.5371264219284058
vt 0.3333333432674408 0
vt 0.3333333432674408 0.5371264219284058
vt 0.6666666865348816 0
vt 0.6666666865348816 0.5371264219284058
vt 0.6666666865348816 0
vt 0.6666666865348816 0.5371264219284058
vt 1 0
vt 1 0.5371264219284058
vt 0 1
vt 0.414215475320816 1
vt 0.2071044743061066 0.5371269583702087
vt 0 0.5371269583702087
vt 0.414215475320816 0.5371269583702087
vt 0.2071044743061066 1
vn 1 -1.780974386572648e-16 0
vn 1 -1.780974386572648e-16 0
vn 1 -1.780974386572648e-16 0
vn 1 -1.780974386572648e-16 0
vn -0.7071179151535034 0.7070956826210022 0
vn -0.7071179151535034 0.7070956826210022 0
vn -0.7071179151535034 0.7070956826210022 0
vn -0.7071179151535034 0.7070956826210022 0
vn -0.7071067690849304 -0.7071067690849304 0
vn -0.7071067690849304 -0.7071067690849304 0
vn -0.7071067690849304 -0.7071067690849304 0
vn -0.7071067690849304 -0.7071067690849304 0
vn 0 0 -1
vn 0 0 -1
vn 0 0 -1
vn 0 0 1
vn 0 0 1
vn 0 0 1
f 19/19/19 21/21/21 22/22/22 20/20/20
f 23/23/23 25/25/25 26/26/26 24/24/24
f 27/27/27 29/29/29 30/30/30 28/28/28
f 31/31/31 33/33/33 32/32/32
f 34/34/34 35/35/35 36/36/36
g object_3
v 17.65847969055176 0.5184107422828674 -0.02500000037252903
v 17.65847969055176 0.5184107422828674 0.02500000037252903
v 17.21768760681152 0.5184107422828674 -0.02500000037252903
v 17.21768760681152 0.5184107422828674 0.02500000037252903
v 17.21768760681152 0.5184107422828674 -0.02500000037252903
v 17.21768760681152 0.5184107422828674 0.02500000037252903
v 16.77688598632812 0.07761930674314499 -0.02500000037252903
v 16.77688598632812 0.07761930674314499 0.02500000037252903
v 16.77688598632812 0.07761930674314499 -0.02500000037252903
v 16.77688598632812 0.07761930674314499 0.02500000037252903
v 17.21768760681152 0.07761930674314499 -0.02500000037252903
v 17.21768760681152 0.07761930674314499 0.02500000037252903
v 17.21768760681152 0.07761930674314499 -0.02500000037252903
v 17.21768760681152 0.07761930674314499 0.02500000037252903
v 17.65847969055176 0.5184107422828674 -0.02500000037252903
v 17.65847969055176 0.5184107422828674 0.02500000037252903
v 17.65847969055176 0.5184107422828674 -0.02500000037252903
v 17.21768760681152 0.5184107422828674 -0.02500000037252903
v 16.77688598632812 0.07761930674314499 -0.02500000037252903
v 17.21768760681152 0.07761930674314499 -0.02500000037252903
v 17.65847969055176 0.5184107422828674 0.02500000037252903
v 17.21768760681152 0.5184107422828674 0.02500000037252903
v 16.77688598632812 0.07761930674314499 0.02500000037252903
v 17.21768760681152 0.07761930674314499 0.02500000037252903
vt 0 0
vt 0 0.5268357396125793
vt 0.25 0
vt 0.25 0.5268357396125793
vt 0.25 0
vt 0.25 0.5268357396125793
vt 0.5 0
vt 0.5 0.5268357396125793
vt 0.5 0
vt 0.5 0.5268357396125793
vt 0.75 0
vt 0.75 0.5268357396125793
vt 0.75 0
vt 0.75 0.5268357396125793
vt 1 0
vt 1 0.5268357396125793
vt 0 1
vt 0.2071051597595215 1
vt 0.4142149090766907 0.5268362760543823
vt 0.2071051597595215 0.5268362760543823
vt 0.5857850909233093 0.5268362760543823
vt 0.7928902506828308 0.5268362760543823
vt 1 1
vt 0.7928902506828308 1
vn -6.296759285384927e-16 1 0
vn -6.296759285384927e-16 1 0
vn -6.296759285384927e-16 1 0
vn -6.296759285384927e-16 1 0
vn -0.7070989012718201 0.7071146368980408 0
vn -0.7070989012718201 0.7071146368980408 0
vn -0.7070989012718201 0.7071146368980408 0
vn -0.7070989012718201 0.7071146368980408 0
vn 2.518647704100334e-16 -1 0
vn 2.518647704100334e-16 -1 0
vn 2.518647704100334e-16 -1 0
vn 2.518647704100334e-16 -1 0
vn 0.7071067690849304 -0.7071067690849304 0
vn 0.7071067690849304 -0.7071067690849304 0
vn 0.7071067690849304 -0.7071067690849304 0
vn 0.7071067690849304 -0.7071067690849304 0
vn 0 0 -1
vn 0 0 -1
vn 0 0 -1
vn 0 0 -1
vn 0 0 1
vn 0 0 1
vn 0 0 1
vn 0 0 1
f 37/37/37 39/39/39 40/40/40 38/38/38
f 41/41/41 43/43/43 44/44/44 42/42/42
f 45/45/45 47/47/47 48/48/48 46/46/46
f 49/49/49 51/51/51 52/52/52 50/50/50
f 54/54/54 53/53/53 56/56/56
f 56/56/56 55/55/55 54/54/54
f 58/58/58 60/60/60 57/57/57
f 60/60/60 58/58/58 59/59/59
g object_4
v 16.46409225463867 1.010882019996643 -0.02500000037252903
v 16.46409225463867 1.010882019996643 0.02500000037252903
v 16.46409225463867 0.387502521276474 -0.02500000037252903
v 16.46409225463867 0.387502521276474 0.02500000037252903
v 16.46409225463867 0.387502521276474 -0.02500000037252903
v 16.46409225463867 0.387502521276474 0.02500000037252903
v 16.77577590942383 0.6991971731185913 -0.02500000037252903
v 16.77577590942383 0.6991971731185913 0.02500000037252903
v 16.77577590942383 0.6991971731185913 -0.02500000037252903
v 16.77577590942383 0.6991971731185913 0.02500000037252903
v 16.46409225463867 1.010882019996643 -0.02500000037252903
v 16.46409225463867 1.010882019996643 0.02500000037252903
v 16.46409225463867 1.010882019996643 -0.02500000037252903
v 16.46409225463867 0.387502521276474 -0.02500000037252903
v 16.77577590942383 0.6991971731185913 -0.02500000037252903
v 16.46409225463867 1.010882019996643 0.02500000037252903
v 16.46409225463867 0.387502521276474 0.02500000037252903
v 16.77577590942383 0.6991971731185913 0.02500000037252903
vt 0 0
vt 0 0.5371264219284058
vt 0.3333333432674408 0
vt 0.3333333432674408 0.5371264219284058
vt 0.3333333432674408 0
vt 0.3333333432674408 0.5371264219284058
vt 0.6666666865348816 0
vt 0.6666666865348816 0.5371264219284058
vt 0.6666666865348816 0
vt 0.6666666865348816 0.5371264219284058
vt 1 0
vt 1 0.5371264219284058
vt 0.414215475320816 0.5371269583702087
vt 0 0.5371269583702087
vt 0.2071109861135483 1
vt 0.414215475320816 1
vt 0 1
vt 0.2071109861135483 0.5371269583702087
vn -1 0 0
vn -1 0 0
vn -1 0 0
vn -1 0 0
vn 0.7071179151535034 -0.7070956826210022 0
vn 0.7071179151535034 -0.7070956826210022 0
vn 0.7071179151535034 -0.7070956826210022 0
vn 0.7071179151535034 -0.7070956826210022 0
vn 0.7071067690849304 0.7071067690849304 0
vn 0.7071067690849304 0.7071067690849304 0
vn 0.7071067690849304 0.7071067690849304 0
vn 0.7071067690849304 0.7071067690849304 0
vn 0 0 -1
vn 0 0 -1
vn 0 0 -1
vn 0 0 1
vn 0 0 1
vn 0 0 1
f 61/61/61 63/63/63 64/64/64 62/62/62
f 65/65/65 67/67/67 68/68/68 66/66/66
f 69/69/69 71/71/71 72/72/72 70/70/70
f 74/74/74 73/73/73 75/75/75
f 77/77/77 78/78/78 76/76/76
g object_5
v 17.66720962524414 0.5184107422828674 -0.02500000037252903
v 17.66720962524414 0.5184107422828674 0.02500000037252903
v 17.66720962524414 -0.7283385396003723 -0.02500000037252903
v 17.66720962524414 -0.7283385396003723 0.02500000037252903
v 17.66720962524414 -0.7283385396003723 -0.02500000037252903
v 17.66720962524414 -0.7283385396003723 0.02500000037252903
v 18.29058837890625 -0.1049688011407852 -0.02500000037252903
v 18.29058837890625 -0.1049688011407852 0.02500000037252903
v 18.29058837890625 -0.1049688011407852 -0.02500000037252903
v 18.29058837890625 -0.1049688011407852 0.02500000037252903
v 17.66720962524414 0.5184107422828674 -0.02500000037252903
v 17.66720962524414 0.5184107422828674 0.02500000037252903
v 17.66720962524414 0.5184107422828674 -0.02500000037252903
v 17.66720962524414 -0.7283385396003723 -0.02500000037252903
v 18.29058837890625 -0.1049688011407852 -0.02500000037252903
v 17.66720962524414 0.5184107422828674 0.02500000037252903
v 17.66720962524414 -0.7283385396003723 0.02500000037252903
v 18.29058837890625 -0.1049688011407852 0.02500000037252903
vt 0 0
vt 0 0.5192785859107971
vt 0.3333333432674408 0
vt 0.3333333432674408 0.5192785859107971
vt 0.3333333432674408 0
vt 0.3333333432674408 0.5192785859107971
vt 0.6666666865348816 0
vt 0.6666666865348816 0.5192785859107971
vt 0.6666666865348816 0
vt 0.6666666865348816 0.5192785859107971
vt 1 0
vt 1 0.5192785859107971
vt 0.4142126142978668 0.5192790627479553
vt 0 0.5192790627479553
vt 0.2071046829223633 1
vt 0.4142126142978668 1
vt 0 1
vt 0.2071046829223633 0.5192790627479553
vn -1 1.780988415555837e-16 0
vn -1 1.780988415555837e-16 0
vn -1 1.780988415555837e-16 0
vn -1 1.780988415555837e-16 0
vn 0.7071012258529663 -0.7071123123168945 0
vn 0.7071012258529663 -0.7071123123168945 0
vn 0.7071012258529663 -0.7071123123168945 0
vn 0.7071012258529663 -0.7071123123168945 0
vn 0.7071067690849304 0.7071067690849304 0
vn 0.7071067690849304 0.7071067690849304 0
vn 0.7071067690849304 0.7071067690849304 0
vn 0.7071067690849304 0.7071067690849304 0
vn 0 0 -1
vn 0 0 -1
vn 0 0 -1
vn 0 0 1
vn 0 0 1
vn 0 0 1
f 79/79/79 81/81/81 82/82/82 80/80/80
f 83/83/83 85/85/85 86/86/86 84/84/84
f 87/87/87 89/89/89 90/90/90 88/88/88
f 92/92/92 91/91/91 93/93/93
f 95/95/95 96/96/96 94/94/94
g object_6
v 17.66284370422363 -0.3579886555671692 -0.02500000037252903
v 17.66284370422363 -0.3579886555671692 0.02500000037252903
v 17.66284370422363 0.5236040353775024 -0.02500000037252903
v 17.66284370422363 0.5236040353775024 0.02500000037252903
v 17.66284370422363 0.5236040353775024 -0.02500000037252903
v 17.66284370422363 0.5236040353775024 0.02500000037252903
v 17.2220516204834 0.0828125849366188 -0.02500000037252903
v 17.2220516204834 0.0828125849366188 0.02500000037252903
v 17.2220516204834 0.0828125849366188 -0.02500000037252903
v 17.2220516204834 0.0828125849366188 0.02500000037252903
v 17.66284370422363 -0.3579886555671692 -0.02500000037252903
v 17.66284370422363 -0.3579886555671692 0.02500000037252903
v 17.66284370422363 -0.3579886555671692 -0.02500000037252903
v 17.66284370422363 0.5236040353775024 -0.02500000037252903
v 17.2220516204834 0.0828125849366188 -0.02500000037252903
v 17.66284370422363 -0.3579886555671692 0.02500000037252903
v 17.66284370422363 0.5236040353775024 0.02500000037252903
v 17.2220516204834 0.0828125849366188 0.02500000037252903
vt 0 0
vt 0 0.5268357396125793
vt 0.3333333432674408 0
vt 0.3333333432674408 0.5268357396125793
vt 0.3333333432674408 0
vt 0.3333333432674408 0.5268357396125793
vt 0.6666666865348816 0
vt 0.6666666865348816 0.5268357396125793
vt 0.6666666865348816 0
vt 0.6666666865348816 0.5268357396125793
vt 1 0
vt 1 0.5268357396125793
vt 0 1
vt 0.4142149090766907 1
vt 0.2071097642183304 0.5268362760543823
vt 0 0.5268362760543823
vt 0.4142149090766907 0.5268362760543823
vt 0.2071097642183304 1
vn 1 0 0
vn 1 0 0
vn 1 0 0
vn 1 0 0
vn -0.7071067690849304 0.7071067690849304 0
vn -0.7071067690849304 0.7071067690849304 0
vn -0.7071067690849304 0.7071067690849304 0
vn -0.7071067690849304 0.7071067690849304 0
vn -0.7071146368980408 -0.7070989012718201 0
vn -0.7071146368980408 -0.7070989012718201 0
vn -0.7071146368980408 -0.7070989012718201 0
vn -0.7071146368980408 -0.7070989012718201 0
vn 0 0 -1
vn 0 0 -1
vn 0 0 -1
vn 0 0 1
vn 0 0 1
vn 0 0 1
f 97/97/97 99/99/99 100/100/100 98/98/98
f 101/101/101 103/103/103 104/104/104 102/102/102
f 105/105/105 107/107/107 108/108/108 106/106/106
f 109/109/109 111/111/111 110/110/110
f 112/112/112 113/113/113 114/114/114
g object_7
v 16.4615306854248 0.3900668025016785 -0.02500000037252903
v 16.4615306854248 0.3900668025016785 0.02500000037252903
v 16.77321624755859 0.07838192582130432 -0.02500000037252903
v 16.77321624755859 0.07838192582130432 0.02500000037252903
v 16.77321624755859 0.07838192582130432 -0.02500000037252903
v 16.77321624755859 0.07838192582130432 0.02500000037252903
v 17.08491134643555 0.3900668025016785 -0.02500000037252903
v 17.08491134643555 0.3900668025016785 0.02500000037252903
v 17.08491134643555 0.3900668025016785 -0.02500000037252903
v 17.08491134643555 0.3900668025016785 0.02500000037252903
v 16.77321624755859 0.7017516493797302 -0.02500000037252903
v 16.77321624755859 0.7017516493797302 0.02500000037252903
v 16.77321624755859 0.7017516493797302 -0.02500000037252903
v 16.77321624755859 0.7017516493797302 0.02500000037252903
v 16.4615306854248 0.3900668025016785 -0.02500000037252903
v 16.4615306854248 0.3900668025016785 0.02500000037252903
v 16.4615306854248 0.3900668025016785 -0.02500000037252903
v 16.77321624755859 0.07838192582130432 -0.02500000037252903
v 17.08491134643555 0.3900668025016785 -0.02500000037252903
v 16.77321624755859 0.7017516493797302 -0.02500000037252903
v 16.4615306854248 0.3900668025016785 0.02500000037252903
v 16.77321624755859 0.07838192582130432 0.02500000037252903
v 17.08491134643555 0.3900668025016785 0.02500000037252903
v 16.77321624755859 0.7017516493797302 0.02500000037252903
vt 0 0
vt 0 0.5268355011940002
vt 0.25 0
vt 0.25 0.5268355011940002
vt 0.25 0
vt 0.25 0.5268355011940002
vt 0.5 0
vt 0.5 0.5268355011940002
vt 0.5 0
vt 0.5 0.5268355011940002
vt 0.75 0
vt 0.75 0.5268355011940002
vt 0.75 0
vt 0.75 0.5268355011940002
vt 1 0
vt 1 0.5268355011940002
vt 0.2500059008598328 0.5268434882164001
vt 7.862315214879345e-06 0.5268360376358032
vt 0 1
vt 0.2500019669532776 1
vt 1 0.9999925494194031
vt 0.7500019669532776 1
vt 0.7499940991401672 0.5268360376358032
vt 0.9999960660934448 0.5268360376358032
vn -0.7071067690849304 -0.7071067690849304 0
vn -0.7071067690849304 -0.7071067690849304 0
vn -0.7071067690849304 -0.7071067690849304 0
vn -0.7071067690849304 -0.7071067690849304 0
vn 0.7070956826210022 -0.7071179151535034 0
vn 0.7070956826210022 -0.7071179151535034 0
vn 0.7070956826210022 -0.7071179151535034 0
vn 0.7070956826210022 -0.7071179151535034 0
vn 0.7070956826210022 0.7071179151535034 0
vn 0.7070956826210022 0.7071179151535034 0
vn 0.7070956826210022 0.7071179151535034 0
vn 0.7070956826210022 0.7071179151535034 0
vn -0.7071067690849304 0.7071067690849304 0
vn -0.7071067690849304 0.7071067690849304 0
vn -0.7071067690849304 0.7071067690849304 0
vn -0.7071067690849304 0.7071067690849304 0
vn 0 0 -1
vn 0 0 -1
vn 0 0 -1
vn 0 0 -1
vn 0 0 1
vn 0 0 1
vn 0 0 1
vn 0 0 1
f 115/115/115 117/117/117 118/118/118 116/116/116
f 119/119/119 121/121/121 122/122/122 120/120/120
f 123/123/123 125/125/125 126/126/126 124/124/124
f 127/127/127 129/129/129 130/130/130 128/128/128
f 134/134/134 133/133/133 132/132/132
f 132/132/132 131/131/131 134/134/134
f 138/138/138 136/136/136 137/137/137
f 136/136/136 138/138/138 135/135/135
